<svg id="vector" xmlns="http://www.w3.org/2000/svg" width="48" height="48" viewBox="0 0 101 101"><path fill="#000000" d="M41.1,4.6c-3.9,4.9 -3.1,5.4 8.4,5.4 9.8,-0 10.5,-0.1 10.5,-2 0,-4 -3.5,-6 -10.4,-6 -5.8,-0 -6.7,0.3 -8.5,2.6z" stroke="#00000000" id="path_0"/><path fill="#000000" d="M36,16l0,4 13.5,-0 13.5,-0 0,-4 0,-4 -13.5,-0 -13.5,-0 0,4z" stroke="#00000000" id="path_1"/><path fill="#000000" d="M31,26c0,3.8 0.2,4 3,4 2.3,-0 3,0.4 3,2 0,1.6 -0.7,2 -3,2 -2.9,-0 -3,0.1 -3,5 0,4.4 -0.5,5.7 -3.9,10 -7.9,10 -9.1,21.7 -3.4,32.9 7,13.7 24.8,19.5 38.8,12.6 5.9,-2.8 10.3,-7.3 13.7,-13.8 1.9,-3.4 2.3,-5.8 2.3,-12.7 0,-9.3 -1.6,-13.7 -7.5,-20.4 -2.5,-2.8 -3,-4.2 -3,-8.5 0,-5 0,-5.1 -3.1,-5.1 -2.4,-0 -3,-0.4 -2.7,-1.8 0.2,-1 1.4,-1.8 3.1,-2 2.4,-0.3 2.7,-0.7 2.7,-4.3l0,-3.9 -18.5,-0 -18.5,-0 0,4zM44,32c0,1.3 -0.7,2 -2,2 -1.3,-0 -2,-0.7 -2,-2 0,-1.3 0.7,-2 2,-2 1.3,-0 2,0.7 2,2zM51.8,32.3c0.3,1.2 -0.3,1.7 -2.2,1.7 -2.5,-0 -3.5,-1.8 -1.9,-3.4 1.2,-1.2 3.8,-0.2 4.1,1.7zM59,32c0,1.3 -0.7,2 -2,2 -1.3,-0 -2,-0.7 -2,-2 0,-1.3 0.7,-2 2,-2 1.3,-0 2,0.7 2,2zM56.1,47.1c9,2.8 14.8,11 14.9,21.2 0,12.3 -9.6,21.7 -22.2,21.7 -5.3,-0 -13.8,-4.8 -17.3,-9.8 -2.7,-4 -3,-5.1 -3,-12.2 0,-7.1 0.3,-8.2 3,-12.2 2,-2.8 4.9,-5.2 8.4,-7.1 5.9,-2.9 10.2,-3.3 16.2,-1.6z" stroke="#00000000" id="path_2"/><path fill="#000000" d="M50,53.8c0,2.2 0.7,3 3.3,4 2.8,1.1 3.4,1 4.5,-0.5 1.8,-2.4 1.5,-3.1 -1.8,-4.8 -4.4,-2.3 -6,-1.9 -6,1.3z" stroke="#00000000" id="path_3"/><path fill="#000000" d="M38.3,55.4c-2.4,2 -2.5,2.6 -1.4,4 1.8,2.1 4.4,2 6.5,-0.3 2,-2.2 1.4,-6.1 -0.9,-6.1 -0.8,-0 -2.6,1.1 -4.2,2.4z" stroke="#00000000" id="path_4"/><path fill="#000000" d="M61.5,61.1c-1.7,0.8 -2,1.7 -1.7,4.5 0.2,1.9 1,3.4 1.7,3.4 0.7,-0 2,0.3 2.9,0.6 1.2,0.5 1.6,-0 1.6,-2.2 0,-3.6 -1,-7.4 -1.9,-7.3 -0.3,-0 -1.5,0.5 -2.6,1z" stroke="#00000000" id="path_5"/><path fill="#000000" d="M45.4,65.5c-1.5,2.3 -1.5,2.7 0,5 2.2,3.3 6,3.3 8.2,-0 1.5,-2.3 1.5,-2.7 0,-5 -1,-1.5 -2.6,-2.5 -4.1,-2.5 -1.5,-0 -3.1,1 -4.1,2.5z" stroke="#00000000" id="path_6"/><path fill="#000000" d="M33,67.4c0,1.4 0.4,3.6 1,5 0.8,2.3 1.2,2.5 3.4,1.5 2.1,-1 2.4,-1.6 1.9,-4.3 -0.7,-3.4 -1.8,-4.6 -4.5,-4.6 -1.2,-0 -1.8,0.8 -1.8,2.4z" stroke="#00000000" id="path_7"/><path fill="#000000" d="M56.1,75.9c-1.7,1.3 -2.2,2.3 -1.6,3.9 0.8,2.8 2.7,2.8 6.2,-0.2 2.4,-2 2.5,-2.6 1.4,-4 -1.7,-2 -3,-2 -6,0.3z" stroke="#00000000" id="path_8"/><path fill="#000000" d="M41.2,78c-0.6,1.1 -1.2,2.2 -1.2,2.5 0,0.7 6.5,3.5 8,3.5 1.8,-0 1.2,-5.7 -0.7,-6.3 -1,-0.2 -2.5,-0.8 -3.3,-1.1 -0.9,-0.4 -2,0.2 -2.8,1.4z" stroke="#00000000" id="path_9"/></svg>