<svg id="vector" xmlns="http://www.w3.org/2000/svg" width="64.901405" height="48" viewBox="0 0 96 71"><path fill="#000000" d="M2.9,2.9c-5,5.1 -4.1,6.1 5.6,6.1 7.9,-0 8.5,-0.1 8.5,-2 0,-1.2 -1.1,-3.2 -2.5,-4.5 -3.4,-3.5 -7.8,-3.3 -11.6,0.4z" stroke="#00000000" id="path_0"/><path fill="#000000" d="M78,8.5l0,2.5 -39,-0 -39,-0 0,2.9c0,1.6 0.7,4.5 1.5,6.5 1.2,2.8 2.1,3.6 4,3.6 1.4,-0 2.5,0.4 2.5,1 0,0.5 -1.2,1 -2.6,1 -2.3,-0 -2.5,0.3 -2.2,3.2 0.2,2.5 0.8,3.4 2.6,3.6 1.9,0.3 2.2,0.9 2.2,5.3 0,4.6 -0.2,4.9 -2.5,4.9 -2.3,-0 -2.5,0.4 -2.5,4.5l0,4.5 44.5,-0 44.5,-0 0,-15.1c0,-14.2 0.1,-15.1 2,-15.6 1.5,-0.4 2,-1.4 2,-3.8 0,-6.2 -6.7,-11.5 -14.5,-11.5 -3.1,-0 -3.5,0.3 -3.5,2.5zM17.8,34.2c2.6,2.6 0.8,5.8 -3.3,5.8 -1.9,-0 -2.9,-3.8 -1.5,-5.5 1.5,-1.8 3.2,-1.9 4.8,-0.3zM28.8,33.9c0.8,0.4 1.2,1.9 1,3.2 -0.4,2.9 -4.5,3.4 -6.1,0.7 -1.9,-3 1.9,-6 5.1,-3.9zM51,34.5c1.8,2.2 0.8,5 -1.9,5 -3.2,-0 -4.9,-2.8 -3.2,-4.9 1.7,-2 3.5,-2 5.1,-0.1zM63.1,34.6c1.7,2.1 0,4.9 -3.2,4.9 -1.8,-0 -2.5,-0.6 -2.7,-2.4 -0.6,-3.8 3.4,-5.5 5.9,-2.5zM76.1,34.6c1.7,2.1 0,4.9 -3.2,4.9 -1.8,-0 -2.5,-0.6 -2.7,-2.4 -0.6,-3.8 3.4,-5.5 5.9,-2.5zM87.9,34.9c1.3,2.4 -0.8,5.5 -3.5,4.9 -2,-0.3 -3,-2.9 -2,-5.4 0.8,-2 4.3,-1.7 5.5,0.5z" stroke="#00000000" id="path_1"/><path fill="#000000" d="M3,63l0,7 10.5,-0c11.6,-0 11.3,0.2 9.9,-6.8 -1.2,-5.8 -3.5,-7.2 -12.4,-7.2l-8,-0 0,7z" stroke="#00000000" id="path_2"/><path fill="#000000" d="M24.6,58.7c0.7,1.6 1.4,3.7 1.4,4.8 0.1,5.5 1,6.5 6.1,6.5 4.4,-0 4.9,-0.2 4.9,-2.3 0,-4.1 -2.1,-9.7 -4,-10.7 -1,-0.5 -3.7,-1 -5.9,-1l-4,-0 1.5,2.7z" stroke="#00000000" id="path_3"/><path fill="#000000" d="M37.5,58.7c0.7,1.5 1.6,4.7 2,7l0.7,4.3 5.5,-0 5.6,-0 -0.7,-4.3c-1.1,-6.8 -3.4,-9.1 -9.4,-9.5l-5.1,-0.3 1.4,2.8z" stroke="#00000000" id="path_4"/><path fill="#000000" d="M51.4,58.9c0.9,1.6 1.6,4.1 1.6,5.5 0,4.9 0.9,5.6 6.7,5.6l5.6,-0 -0.7,-4.3c-1.1,-6.8 -3.4,-9.1 -9.5,-9.5l-5.2,-0.3 1.5,3z" stroke="#00000000" id="path_5"/><path fill="#000000" d="M65.5,59.4c0.8,2 1.5,5.1 1.5,7.1l0,3.5 6.1,-0 6.1,-0 -0.7,-4.3c-1.1,-6.8 -3.3,-9.1 -9.3,-9.5l-5.1,-0.3 1.4,3.5z" stroke="#00000000" id="path_6"/><path fill="#000000" d="M79.6,59.5c0.7,1.9 1.4,5 1.4,7l0,3.5 5.5,-0 5.5,-0 0,-7 0,-7 -6.9,-0 -7,-0 1.5,3.5z" stroke="#00000000" id="path_7"/></svg>